<?xml version="1.0" ?><svg data-name="Layer 1" id="Layer_1" viewBox="0 0 32 32" xmlns="http://www.w3.org/2000/svg"><defs><style>.cls-1{fill:#f43b33;}</style></defs><title/><path class="cls-1" d="M11.62,25.17h-.3a9.41,9.41,0,0,0,11.39,0H11.62Z"/><path class="cls-1" d="M22.41,7.06h.3a9.41,9.41,0,0,0-11.39,0H22.41Z"/><path class="cls-1" d="M6.93,16.11a11.23,11.23,0,0,1,4.39-9,5.85,5.85,0,0,0-5.27,6v6a5.85,5.85,0,0,0,5.27,6A11.24,11.24,0,0,1,6.93,16.11Z"/><ellipse class="cls-1" cx="15.55" cy="18.01" rx="0.66" ry="0.86"/><path class="cls-1" d="M22.76,11c-.8-.68-2.32.67-3.32.67L17,11.46l-2.45.22c-1,0-2.63-1.35-3.43-.67-.64.55-.15,1.91-.34,3.4a5,5,0,0,0-.42,2h0a4.52,4.52,0,0,0,4.3,4.68,9.14,9.14,0,0,0,4.72,0,4.53,4.53,0,0,0,4.31-4.68h0a5,5,0,0,0-.49-2.16C23,12.79,23.38,11.54,22.76,11Zm-4.18,9.5h0a9.42,9.42,0,0,1-2.65.05l-.18,0A2.44,2.44,0,0,1,13.67,18a1.79,1.79,0,0,1,1.71-1.85h3.27A1.79,1.79,0,0,1,20.36,18C20.31,19.27,19.77,20.34,18.58,20.51Z"/><ellipse class="cls-1" cx="18.89" cy="18.01" rx="0.66" ry="0.86"/><path class="cls-1" d="M22.71,7.07a11.23,11.23,0,0,1,4.39,9,11.24,11.24,0,0,1-4.39,9.05,5.86,5.86,0,0,0,5.27-6v-6A5.86,5.86,0,0,0,22.71,7.07Z"/></svg>