<?xml version="1.0" ?><svg data-name="Layer 1" id="Layer_1" viewBox="0 0 32 32" xmlns="http://www.w3.org/2000/svg"><defs><style>.cls-1{fill:#f43b33;}</style></defs><title/><path class="cls-1" d="M22.41,6.83h.3a9.41,9.41,0,0,0-11.39,0H22.41Z"/><path class="cls-1" d="M11.62,24.94h-.3a9.41,9.41,0,0,0,11.39,0H11.62Z"/><path class="cls-1" d="M6.93,15.88a11.23,11.23,0,0,1,4.39-9,5.85,5.85,0,0,0-5.27,6v6a5.85,5.85,0,0,0,5.27,6A11.24,11.24,0,0,1,6.93,15.88Z"/><path class="cls-1" d="M19.8,10.4H14.23a2.7,2.7,0,0,0-2.7,2.7v5.57a2.71,2.71,0,0,0,2.7,2.7H19.8a2.71,2.71,0,0,0,2.69-2.7V13.1A2.7,2.7,0,0,0,19.8,10.4ZM17,18.58a2.7,2.7,0,1,1,2.7-2.7A2.69,2.69,0,0,1,17,18.58Zm3.35-5.39a.6.6,0,1,1,.6-.6A.6.6,0,0,1,20.36,13.19Z"/><path class="cls-1" d="M22.71,6.84a11.23,11.23,0,0,1,4.39,9,11.24,11.24,0,0,1-4.39,9,5.86,5.86,0,0,0,5.27-6v-6A5.86,5.86,0,0,0,22.71,6.84Z"/></svg>