<?xml version="1.0" ?><svg data-name="Layer 1" id="Layer_1" viewBox="0 0 32 32" xmlns="http://www.w3.org/2000/svg"><defs><style>.cls-1{fill:#f43b33;}</style></defs><title/><path class="cls-1" d="M22.36,6.83h.3a9.41,9.41,0,0,0-11.39,0H22.36Z"/><path class="cls-1" d="M11.57,24.94h-.3a9.41,9.41,0,0,0,11.39,0H11.57Z"/><path class="cls-1" d="M6.88,15.88a11.23,11.23,0,0,1,4.39-9,5.85,5.85,0,0,0-5.27,6v6a5.85,5.85,0,0,0,5.27,6A11.24,11.24,0,0,1,6.88,15.88Z"/><path class="cls-1" d="M22.66,6.84a11.23,11.23,0,0,1,4.39,9,11.24,11.24,0,0,1-4.39,9,5.85,5.85,0,0,0,5.27-6v-6A5.85,5.85,0,0,0,22.66,6.84Z"/><path class="cls-1" d="M21.74,12.21l.67-1.07a2,2,0,0,1-.42,0,2.61,2.61,0,0,1-1.4-.46,1.9,1.9,0,0,0-1.05-.32,2.4,2.4,0,0,0-2.28,2.12c0,.23,0,.48-.05.74s0,.26,0,.39l0,.27h-.24a7.77,7.77,0,0,1-5.31-2.72,3.05,3.05,0,0,0,.85,3.14l.51.58-1.65-.49c.13,1.54,2.26,2.94,2.26,2.94h0l-1.24,0s-.06,1.4,2.19,2.34l-2.74,1a6.73,6.73,0,0,0,2.95.7c3.36,0,6.25-2.57,7-6.24a9.12,9.12,0,0,0,.12-1,4.12,4.12,0,0,1,.54-2.08Z"/></svg>